HIERARCHY
ROOT hip
{
	OFFSET 0.000000 0.000000 0.000000
	CHANNELS 6 Xposition Yposition Zposition Xrotation Zrotation Yrotation 
	JOINT abdomen
	{
		OFFSET 0.000000 3.422050 0.000000
		CHANNELS 3 Xrotation Zrotation Yrotation 
		JOINT chest
		{
			OFFSET 0.000000 8.486693 -0.684411
			CHANNELS 3 Xrotation Zrotation Yrotation 
			JOINT neck
			{
				OFFSET 0.000000 10.266162 -0.273764
				CHANNELS 3 Xrotation Zrotation Yrotation 
				JOINT head
				{
					OFFSET 0.000000 3.148285 0.000000
					CHANNELS 3 Xrotation Zrotation Yrotation 
					End Site
					{
						OFFSET 0.000000 3.148289 0.000000
					}
				}
			}
			JOINT lCollar
			{
				OFFSET 3.422053 6.707223 -0.821293
				CHANNELS 3 Yrotation Zrotation Xrotation 
				JOINT lShldr
				{
					OFFSET 3.285171 0.000000 0.000000
					CHANNELS 3 Zrotation Yrotation Xrotation 
					JOINT lForeArm
					{
						OFFSET 10.129278 0.000000 0.000000
						CHANNELS 3 Yrotation Zrotation Xrotation 
						JOINT lHand
						{
							OFFSET 8.486692 0.000000 0.000000
							CHANNELS 3 Zrotation Yrotation Xrotation 
							End Site
							{
								OFFSET 4.106464 0.000000 0.000000
							}
						}
					}
				}
			}
			JOINT rCollar
			{
				OFFSET -3.558935 6.707223 -0.821293
				CHANNELS 3 Yrotation Zrotation Xrotation 
				JOINT rShldr
				{
					OFFSET -3.148289 0.000000 0.000000
					CHANNELS 3 Zrotation Yrotation Xrotation 
					JOINT rForeArm
					{
						OFFSET -10.266159 0.000000 0.000000
						CHANNELS 3 Yrotation Zrotation Xrotation 
						JOINT rHand
						{
							OFFSET -8.349810 0.000000 0.000000
							CHANNELS 3 Zrotation Yrotation Xrotation 
							End Site
							{
								OFFSET -4.106464 0.000000 0.000000
							}
						}
					}
				}
			}
		}
	}
	JOINT lThigh
	{
		OFFSET 5.338403 -1.642589 1.368821
		CHANNELS 3 Xrotation Zrotation Yrotation 
		JOINT lShin
		{
			OFFSET -2.053232 -20.121670 0.000000
			CHANNELS 3 Xrotation Zrotation Yrotation 
			JOINT lFoot
			{
				OFFSET 0.000000 -19.300380 -1.231939
				CHANNELS 3 Xrotation Yrotation Zrotation 
				End Site
				{
					OFFSET 0.000000 -2.463878 4.653993
				}
			}
		}
	}
	JOINT rThigh
	{
		OFFSET -5.338403 -1.642589 1.368821
		CHANNELS 3 Xrotation Zrotation Yrotation 
		JOINT rShin
		{
			OFFSET 2.053232 -20.121670 0.000000
			CHANNELS 3 Xrotation Zrotation Yrotation 
			JOINT rFoot
			{
				OFFSET 0.000000 -19.300380 -1.231939
				CHANNELS 3 Xrotation Yrotation Zrotation 
				End Site
				{
					OFFSET 0.000000 -2.463878 4.653993
				}
			}
		}
	}
}
MOTION
Frames: 6
Frame Time: 0.022176
-0.393502 12.773220 14.190254 47.346050 0.000000 -180.000000 35.511280 -2.214664 -0.812029 37.331383 0.150294 0.849939 -32.618404 -8.597320 -0.202915 -11.611936 -10.915586 -24.635832 -20.509640 6.997037 12.499514 -58.590260 -31.304171 7.579580 1.297960 -6.723930 0.953853 -6.584589 -14.788729 -6.037666 20.861490 -6.114726 12.997439 57.481560 30.855879 7.026596 -1.508247 6.305356 0.960513 6.375628 15.272696 -6.995688 -34.925716 42.229675 56.324120 49.037373 4.848182 -55.174816 19.656370 37.811020 14.163280 -34.930927 -42.243050 -56.331554 49.039124 -4.862020 55.173676 19.649572 -37.822140 -14.175827 
-0.393502 12.773220 14.271955 46.693375 0.000000 -180.000000 35.686375 -2.214678 -0.812049 37.331383 0.150294 0.849939 -31.899944 -8.550566 -0.222779 -11.344992 -10.458906 -24.584431 -20.609463 7.257157 12.235155 -58.590260 -31.304171 7.579580 1.297960 -6.723930 0.953853 -6.086240 -15.220051 -6.379230 20.981293 -6.332871 12.757123 57.481560 30.855879 7.026596 -1.508247 6.305356 0.960513 5.860588 15.722576 -7.387764 -35.595432 41.999786 56.105759 48.666615 4.734725 -55.217335 19.985119 38.008446 13.875546 -35.601154 -42.013577 -56.113140 48.668522 -4.749180 55.216442 19.978096 -38.019939 -13.888486 
-0.393502 12.773220 14.353657 46.040768 0.000000 -180.000000 35.861462 -2.214693 -0.812068 37.331379 0.150294 0.849939 -31.179796 -8.503451 -0.242093 -11.077650 -10.001842 -24.530872 -20.708120 7.517717 11.971112 -58.590260 -31.304171 7.579580 1.297960 -6.723930 0.953853 -5.584267 -15.648413 -6.725333 21.100216 -6.551506 12.517171 57.481560 30.855879 7.026596 -1.508247 6.305356 0.960513 5.341284 16.168955 -7.784848 -36.261478 41.768040 55.891804 48.296017 4.621006 -55.259106 20.316000 38.204559 13.585610 -36.267719 -41.782261 -55.899162 48.298077 -4.636073 55.258465 20.308746 -38.216419 -13.598933 
-0.393502 12.773220 14.435358 45.388287 0.000000 -180.000000 36.036545 -2.214707 -0.812088 37.331379 0.150294 0.849939 -30.458014 -8.455987 -0.260849 -10.809891 -9.544426 -24.475153 -20.805630 7.778707 11.707379 -58.590260 -31.304171 7.579580 1.297960 -6.723930 0.953853 -5.078654 -16.073736 -7.075988 21.218267 -6.770620 12.277584 57.481560 30.855879 7.026596 -1.508247 6.305356 0.960513 4.817699 16.611736 -8.186950 -36.923851 41.534512 55.682278 47.925591 4.507025 -55.300137 20.649015 38.399334 13.293469 -36.930637 -41.549160 -55.689610 47.927792 -4.522707 55.299744 20.641544 -38.411572 -13.307176 
-0.393502 12.773220 14.517059 44.735992 0.000000 -180.000000 36.211632 -2.214722 -0.812108 37.331383 0.150294 0.849939 -29.734648 -8.408180 -0.279038 -10.541689 -9.086686 -24.417263 -20.901972 8.040115 11.443954 -58.590260 -31.304171 7.579580 1.297960 -6.723930 0.953853 -4.569388 -16.495937 -7.431203 21.335438 -6.990207 12.038360 57.481560 30.855879 7.026596 -1.508247 6.305356 0.960513 4.289825 17.050823 -8.594077 -37.582569 41.299244 55.477165 47.555340 4.392794 -55.340420 20.984175 38.592754 12.999115 -37.589874 -41.314316 -55.484459 47.557690 -4.409085 55.340275 20.976482 -38.605373 -13.013202 
-0.393502 12.773220 14.598761 44.083893 0.000000 -180.000000 36.386707 -2.214736 -0.812128 37.331383 0.150294 0.849939 -29.009747 -8.360041 -0.296653 -10.273021 -8.628654 -24.357206 -20.997154 8.301929 11.180830 -58.590260 -31.304171 7.579580 1.297960 -6.723930 0.953853 -4.056453 -16.914928 -7.790981 21.451731 -7.210255 11.799500 57.481560 30.855879 7.026596 -1.508247 6.305356 0.960513 3.757649 17.486118 -9.006232 -38.237602 41.062279 55.276424 47.185268 4.278322 -55.379951 21.321484 38.784813 12.702548 -38.245453 -41.077785 -55.283691 47.187771 -4.295223 55.380077 21.313576 -38.797813 -12.717013 
